:SAMPLES-PER-SECOND 30
:FULLY-SPECIFIED
:DEGREES
187
root  -1.34261 38.0747 13.3122 -172.817 52.1894 -173.995
RightUpLeg  -30.1218 34.774 -4.68085
RightLeg  29.3368 18.8643 10.9374
RightFoot  -4.21558 -0.200204 2.73436
RightToes  -5.8209e-011 0 -3.6325e-017
Spine  30.1591 -6.76916 -37.3528
Spine1  -3.12382 -17.4091 4.7714
HEad  0.373843 61.7437 -9.99607
LeftShoulder1  2.40842 -12.1562 -7.83553
LeftArm  118.882 -53.7405 176.263
LeftForeArm  66.0931 -3.5749 -12.2035
LeftHand  -0.246645 0.021 5.37786
RightShoulder  4.42071 10.9877 24.3622
RightArm  -62.4143 38.5153 24.8327
RightForeArm  149.477 77.7431 131.482
RightHand  -0.24729 -0.0210522 -5.37781
LeftUpLeg  -2.52637 46.2388 20.0744
LeftLeg  33.4092 7.3567 5.57326
LeftFoot  -17.2804 -0.790462 -17.1128
LeftToes  -7.45818e-011 -3.37383e-011 1.08613e-011
188
root  -1.45002 38.075 13.365 -173.19 51.5217 -174.39
RightUpLeg  -30.1608 34.3994 -5.04309
RightLeg  29.2487 18.6452 10.7781
RightFoot  -4.23156 -0.212528 2.95173
RightToes  -5.8209e-011 0 -3.6325e-017
Spine  30.4194 -6.33265 -37.0015
Spine1  -2.68301 -17.013 4.69189
HEad  0.268607 61.6415 -10.2186
LeftShoulder1  2.45174 -12.2171 -8.07722
LeftArm  118.073 -54.0283 177.168
LeftForeArm  66.3451 -3.18169 -12.3692
LeftHand  -0.246645 0.021 5.37786
RightShoulder  4.56258 11.2324 24.8396
RightArm  -61.743 38.2774 25.5885
RightForeArm  150.013 77.7496 131.587
RightHand  -0.24729 -0.0210522 -5.37781
LeftUpLeg  -3.15132 45.9127 19.4664
LeftLeg  33.5473 7.15942 5.46184
LeftFoot  -17.2951 -0.775335 -16.7879
LeftToes  -7.45818e-011 -3.37383e-011 1.08613e-011
189
root  -1.55793 38.0748 13.4196 -173.583 50.672 -174.786
RightUpLeg  -30.1559 34.0249 -5.40743
RightLeg  29.147 18.2841 10.5347
RightFoot  -4.27784 -0.226523 3.2003
RightToes  -5.8209e-011 0 -3.6325e-017
Spine  30.6735 -5.81961 -36.5613
Spine1  -2.01979 -16.5452 4.68246
HEad  -0.229793 61.4456 -10.799
LeftShoulder1  2.48071 -12.2395 -8.25836
LeftArm  116.795 -54.3397 178.144
LeftForeArm  66.7659 -2.70392 -12.4433
LeftHand  -0.246645 0.021 5.37786
RightShoulder  4.71634 11.4751 25.3881
RightArm  -60.9678 38.0083 26.2854
RightForeArm  149.919 77.8147 131.294
RightHand  -0.24729 -0.0210522 -5.37781
LeftUpLeg  -3.7845 45.5202 18.8623
LeftLeg  33.6284 6.83375 5.24782
LeftFoot  -17.3217 -0.766568 -16.5527
LeftToes  -7.45818e-011 -3.37383e-011 1.08613e-011
190
root  -1.66141 38.0724 13.4706 -173.945 49.7093 -175.146
RightUpLeg  -30.1566 33.702 -5.76952
RightLeg  29.0816 17.7771 10.2253
RightFoot  -4.3721 -0.240568 3.45795
RightToes  -5.8209e-011 0 -3.6325e-017
Spine  30.9484 -5.27146 -35.959
Spine1  -1.34643 -15.9977 4.67619
HEad  -0.511613 61.0004 -11.3028
LeftShoulder1  2.52867 -12.3603 -8.46139
LeftArm  115.253 -54.8044 179.357
LeftForeArm  66.97 -2.21035 -12.4842
LeftHand  -0.246645 0.021 5.37786
RightShoulder  4.85885 11.6949 25.8901
RightArm  -59.973 37.5729 27.0667
RightForeArm  149.11 77.9498 130.517
RightHand  -0.24729 -0.0210522 -5.37781
LeftUpLeg  -4.43442 45.1142 18.2941
LeftLeg  33.7336 6.42691 4.97863
LeftFoot  -17.3707 -0.763455 -16.3675
LeftToes  -7.45818e-011 -3.37383e-011 1.08613e-011
191
root  -1.76405 38.0638 13.5207 -174.381 48.7484 -175.58
RightUpLeg  -30.1786 33.4424 -6.19805
RightLeg  29.1138 17.1979 9.91363
RightFoot  -4.52472 -0.252586 3.72193
RightToes  -5.8209e-011 0 -3.6325e-017
Spine  31.2683 -4.70933 -35.2674
Spine1  -0.775794 -15.391 4.5379
HEad  -0.382841 60.3769 -11.4994
LeftShoulder1  2.63631 -12.6406 -8.89531
LeftArm  113.634 -55.4447 -179.033
LeftForeArm  67.3088 -1.68391 -12.591
LeftHand  -0.246645 0.021 5.37786
RightShoulder  5.0239 11.9752 26.3951
RightArm  -58.7786 36.9793 27.9425
RightForeArm  148.026 78.1509 129.351
RightHand  -0.24729 -0.0210522 -5.37781
LeftUpLeg  -5.0564 44.732 17.7017
LeftLeg  33.8978 6.03242 4.7253
LeftFoot  -17.4238 -0.756413 -16.1018
LeftToes  -7.45818e-011 -3.37383e-011 1.08613e-011
